<?xml version="1.0" standalone="no"?><!DOCTYPE svg PUBLIC "-//W3C//DTD SVG 1.1//EN" "http://www.w3.org/Graphics/SVG/1.1/DTD/svg11.dtd"><svg t="1738946401939" class="icon" viewBox="0 0 1024 1024" version="1.1" xmlns="http://www.w3.org/2000/svg" p-id="6063" xmlns:xlink="http://www.w3.org/1999/xlink" width="200" height="200"><path d="M512 0c282.752 0 512 229.248 512 512s-229.248 512-512 512S0 794.752 0 512 229.248 0 512 0z m0 85.333333C276.352 85.333333 85.333333 276.352 85.333333 512s191.018667 426.666667 426.666667 426.666667 426.666667-191.018667 426.666667-426.666667S747.648 85.333333 512 85.333333z m265.173333 167.04a21.333333 21.333333 0 0 1 0 24.32l-141.056 203.776a127.957333 127.957333 0 0 1-155.648 155.648l-203.776 141.056a21.333333 21.333333 0 0 1-29.696-29.696l141.013334-203.776a127.957333 127.957333 0 0 1 155.690666-155.690666l203.776-141.013334a21.333333 21.333333 0 0 1 29.696 5.376z m-265.088 217.045334a42.666667 42.666667 0 1 0 0 85.333333 42.666667 42.666667 0 0 0 0-85.333333z" fill="#c1cbd8" p-id="6064"></path></svg>