<?xml version="1.0" standalone="no"?><!DOCTYPE svg PUBLIC "-//W3C//DTD SVG 1.1//EN" "http://www.w3.org/Graphics/SVG/1.1/DTD/svg11.dtd"><svg t="1738946531798" class="icon" viewBox="0 0 1024 1024" version="1.1" xmlns="http://www.w3.org/2000/svg" p-id="8886" xmlns:xlink="http://www.w3.org/1999/xlink" width="200" height="200"><path d="M536.96 894.037333c-200.533333 0-388.266667-192-460.8-437.333333-17.066667-72.533333 19.2-132.266667 59.733333-153.6-4.266667-41.258667 11.946667-129.28 110.933334-151.466667 14.208-37.674667 68.693333-105.386667 172.8-74.666666 14.208-12.8 56.32-35.84 110.933333-25.6 68.266667 12.8 91.733333 44.8 104.533333 66.133333 10.24 17.066667 36.992 71.125333 49.066667 96 34.858667-19.925333 120.32-43.946667 183.466667 19.2 18.56 18.56 30.08 40.746667 36.693333 64 28.330667 100.224-21.205333 253.738667-59.050667 345.6-52.053333 126.208-147.754667 248.448-308.309333 251.733333zM669.44 408.746667l-125.568-232.832a47.018667 47.018667 0 1 0-82.773333 44.586666l92.117333 170.794667a13.397333 13.397333 0 0 1-23.552 12.714667L415.872 193.024a47.018667 47.018667 0 0 0-82.773333 44.586667l113.706666 210.858666a13.184 13.184 0 1 1-23.168 12.501334L322.005333 272.512a47.018667 47.018667 0 1 0-82.773333 44.586667l100.266667 185.898666a15.701333 15.701333 0 1 1-27.690667 14.933334L251.477333 405.930667a47.914667 47.914667 0 1 0-84.309333 45.482666l11.093333 20.693334c77.653333 144.853333 171.264 319.488 358.698667 319.488 173.226667 0 260.437333-274.816 288.554667-444.16a52.138667 52.138667 0 0 0-31.488-56.192 54.186667 54.186667 0 0 0-68.010667 22.186666L669.44 408.746667z" p-id="8887"></path></svg>